# xmcd
#
# Track frame offsets:
#	150
#	19507
#	43214
#	61556
#	81785
#	94013
#	112305
#	133441
#	155692
#	174103
#	192555
#	205328
#	223294
#	241025
#	259125
#	283890
#	301551
#	315495
#	337687
#
# Disc length: 4756 seconds
#
# Revision: 0
# Processed by: cddbd v1.4PL0 Copyright (c) Steve Scherf et al.
# Submitted via: dBpowerAMP V4.0
#
DISCID=0d129213
DTITLE=divers - slow
DYEAR=1900
DGENRE=
TTITLE0=Laura Pausini Amore extranos
TTITLE1=Lara Fabian Caruso
TTITLE2=Julie Zenatti La vie fait ce qu'elle veut
TTITLE3=Johnny Hallyday Ne reviens pas
TTITLE4=Joe Cooker You are so beautiful
TTITLE5=Garou L'adieu
TTITLE6=Florent Pagny Savoir aimer
TTITLE7=Florent Pagny Et un jour une femme
TTITLE8=Eros Ramazotti Por ti casaré
TTITLE9=Eros Ramazotti Adesso tu
TTITLE10=Elvis Presley Love me tender
TTITLE11=Elton john Candle in the wind
TTITLE12=Claude Barzotti Madame
TTITLE13=Cindy Un monde à nous
TTITLE14=Bonnie Tyler Turn around
TTITLE15=Billy Joel Honnesty
TTITLE16=John Lenon Imagine
TTITLE17=Annie Lenox Why
TTITLE18=Andréa Boccelli Con te partiro
EXTD=
EXTT0=
EXTT1=
EXTT2=
EXTT3=
EXTT4=
EXTT5=
EXTT6=
EXTT7=
EXTT8=
EXTT9=
EXTT10=
EXTT11=
EXTT12=
EXTT13=
EXTT14=
EXTT15=
EXTT16=
EXTT17=
EXTT18=
PLAYORDER=
